<svg width="43" height="14" viewBox="0 0 43 14" fill="none" xmlns="http://www.w3.org/2000/svg">
<path d="M8.1087 12.689C7.69915 12.4218 7.4085 12.0145 7.23675 11.4545C7.065 10.8945 6.98573 10.1563 6.98573 9.22722V7.96722C6.98573 7.03812 7.07821 6.27449 7.27638 5.71449C7.47455 5.14176 7.77842 4.73449 8.20118 4.47994C8.62394 4.2254 9.16561 4.0854 9.83939 4.0854C10.5 4.0854 11.0416 4.21267 11.438 4.47994C11.8343 4.74722 12.1382 5.15449 12.3231 5.71449C12.5081 6.27449 12.6006 7.0254 12.6006 7.95449V9.21449C12.6006 10.1436 12.5081 10.8818 12.3231 11.4418C12.1382 12.0018 11.8475 12.409 11.438 12.6763C11.0284 12.9309 10.4735 13.0709 9.78655 13.0709C9.07313 13.0836 8.51825 12.9436 8.1087 12.689ZM10.3943 11.3272C10.5132 11.0472 10.566 10.5763 10.566 9.93994V7.22903C10.566 6.6054 10.5132 6.14721 10.3943 5.86722C10.2754 5.57449 10.0772 5.43449 9.79976 5.43449C9.52232 5.43449 9.33736 5.57449 9.21846 5.86722C9.09955 6.15994 9.04671 6.6054 9.04671 7.22903V9.93994C9.04671 10.5763 9.09955 11.0472 9.20524 11.3272C9.31094 11.6072 9.50911 11.7472 9.79976 11.7472C10.0772 11.7472 10.2754 11.6072 10.3943 11.3272ZM39.3536 9.25267V9.69812L39.4065 10.9581C39.4461 11.2381 39.5122 11.4418 39.6178 11.569C39.7235 11.6963 39.8953 11.7599 40.1199 11.7599C40.4237 11.7599 40.6351 11.6454 40.7408 11.4163C40.8597 11.1872 40.9126 10.8054 40.9258 10.2836L42.6829 10.3854C42.6961 10.4618 42.6961 10.5636 42.6961 10.6909C42.6961 11.4927 42.4715 12.0909 42.0091 12.4854C41.5467 12.8799 40.9126 13.0836 40.0802 13.0836C39.0762 13.0836 38.376 12.7781 37.9796 12.1799C37.5833 11.5818 37.3719 10.6399 37.3719 9.37994V7.83994C37.4168 5.67631 37.8118 4.09176 40.1331 4.0854C40.8333 4.0854 41.3617 4.21267 41.7317 4.45449C42.1016 4.69631 42.3658 5.07812 42.5243 5.59994C42.6829 6.12176 42.7489 6.83449 42.7489 7.75085V9.23994H39.3536V9.25267ZM39.6178 5.58722C39.5122 5.71449 39.4461 5.9054 39.4065 6.1854C39.3668 6.4654 39.3536 7.45812 39.3536 7.45812V8.08176H40.8333V7.45812C40.8333 8.08176 40.8201 6.47812 40.7804 6.1854C40.7408 5.89267 40.6748 5.68903 40.5691 5.57449C40.4634 5.45994 40.3048 5.39631 40.0935 5.39631C39.8689 5.40903 39.7103 5.47267 39.6178 5.58722ZM3.16764 9.08722L0.855652 1.04358H2.87699C2.87699 1.04358 3.82161 5.07812 4.14529 6.97449H4.19813C4.56541 4.96103 5.49285 1.04358 5.49285 1.04358H7.51419L5.17577 9.07449V12.9309H3.18086V9.08722H3.16764Z" fill="white"/>
<path d="M19.1534 4.25085V12.9436H17.5681L17.3963 11.8745H17.3567C16.9207 12.6763 16.2734 13.0836 15.4146 13.0836C13.8596 13.0798 13.6866 11.8109 13.6707 10.7418V4.25085H15.7053V10.6272C15.7053 11.009 15.7449 11.289 15.8374 11.4545C16.025 11.8083 16.5112 11.7179 16.7754 11.5436C16.9279 11.4442 17.0509 11.3082 17.1321 11.149V4.25085H19.1534Z" fill="white"/>
<path d="M29.4827 4.25085V12.9436H27.8973L27.7255 11.8745H27.6859C27.2499 12.6763 26.6026 13.0836 25.7438 13.0836C24.1889 13.0798 24.0158 11.8109 23.9999 10.7418V4.25085H26.0345V10.6272C26.0345 11.009 26.0741 11.289 26.1666 11.4545C26.3542 11.8083 26.8404 11.7179 27.1046 11.5436C27.2572 11.4442 27.3801 11.3082 27.4613 11.149V4.25085H29.4827Z" fill="white"/>
<path d="M24.6758 2.62178H22.6545V12.9436H20.6728V2.62178H18.6514V1.0436H24.6626V2.62178H24.6758ZM36.2886 5.63814C36.1697 5.09087 35.9716 4.69633 35.6941 4.44178C35.4167 4.19996 35.0468 4.07269 34.5579 4.07269C34.1862 4.0719 33.8227 4.17828 33.5142 4.37814C33.1839 4.58178 32.9461 4.84905 32.7612 5.17996H32.748V0.598145H30.7927V12.9309H32.4705L32.6819 12.1036H32.7216C32.8831 12.3949 33.1255 12.6373 33.4218 12.8036C33.7388 12.9691 34.0823 13.0581 34.4655 13.0581C35.1524 13.0581 35.6545 12.7527 35.9848 12.1418C36.3018 11.5309 36.4736 10.5763 36.4736 9.29087V7.91633C36.4736 6.94905 36.4075 6.18542 36.2886 5.63814ZM34.4258 9.18905C34.4258 9.82542 34.3994 10.3218 34.3465 10.6781C34.2937 11.0345 34.2012 11.2891 34.0691 11.4418C33.937 11.5945 33.7652 11.6709 33.5539 11.6709C33.1443 11.6581 32.9118 11.48 32.748 11.2127V6.27451C32.814 6.03269 32.9329 5.84178 33.1047 5.68905C33.3953 5.37469 33.8921 5.37087 34.122 5.68905C34.2409 5.84178 34.3069 6.10905 34.3598 6.47814C34.3994 6.84724 34.4258 7.36905 34.4258 8.05633V9.18905Z" fill="white"/>
</svg>
